<svg xmlns="http://www.w3.org/2000/svg" fill="none" viewBox="0 0 394 80">
  <path fill="#000" d="M262 0h68.5v12.7h-27.2v66.6h-13.6V12.7H262V0ZM149.5 0v12.7H94v20.4h44.3v12.6H94v21h55.5v12.6H80.4V0h69.1zm34.3 0h-17.8l63.8 79.4h17.9l-32-39.7 32-39.6h-17.9l-23 28.6-23-28.6zm18.3 56.7-9-11-27.1 33.7h17.9l18.2-22.7zM81 79.4 17 0H0v79.4h13.6V17l50.2 62.4H81zm252.6-.4c-1 0-1.8-.4-2.5-1s-1.1-1.6-1.1-2.6.3-1.8 1-2.5 1.5-1 2.6-1 1.8.3 2.5 1a3.4 3.4 0 0 1 .6 4.3 3.7 3.7 0 0 1-3 1.8zm23.2-33.5h6v23.3c0 2.1-.4 4-1.3 5.5a9.1 9.1 0 0 1-3.8 3.5c-1.6.8-3.5 1.3-5.7 1.3-2 0-3.7-.4-5.3-1s-2.8-1.8-3.7-3.2c-.9-1.3-1.4-3-1.4-5h6c.1.8.3 1.6.7 2.2s1 1.2 1.6 1.5c.7.4 1.5.5 2.4.5 1 0 1.8-.2 2.4-.6a4 4 0 0 0 1.6-1.8c.3-.8.5-1.8.5-3V45.5zm30.9-11.2c2.3 0 4.4.4 6.3 1.2 1.8.8 3.4 2 4.7 3.5a15.3 15.3 0 0 1 3 5.3c.7 2 .9 4.3.8 6.7h-24.5c.1 1.6.5 3 1.2 4.3a8 8 0 0 0 7.5 4.5c1.3 0 2.5-.2 3.5-.7 1-.5 1.8-1.2 2.4-2a9 9 0 0 0 1.4-3h6.2c-.3 1.8-.9 3.5-1.8 5a14 14 0 0 1-3.7 4.3 15.6 15.6 0 0 1-5.2 2.8c-2 .6-4 .9-6.3.9-3 0-5.5-.5-7.7-1.5a14.6 14.6 0 0 1-5.4-4 17 17 0 0 1-3.4-6 24 24 0 0 1-1.1-7.3c0-2.6.4-5 1.2-7.2a18 18 0 0 1 3.5-5.8 16 16 0 0 1 5.4-3.8c2-.9 4.3-1.4 6.8-1.4zm-.2 5.5c-1.3 0-2.5.2-3.6.7a8 8 0 0 0-4.6 4.6c-.4 1-.7 2-.8 3.2h18c-.1-1.2-.4-2.3-.8-3.3a8.3 8.3 0 0 0-2-2.8 7.5 7.5 0 0 0-2.8-1.8 9.4 9.4 0 0 0-3.4-.6z" />
</svg>
